<svg id="Layer_1" data-name="Layer 1" xmlns="http://www.w3.org/2000/svg" viewBox="0 0 64 64"><defs><style>.cls-1{fill:#f9f9f9;}.cls-2{fill:#ff5a00;}.cls-3{fill:#eb001b;}.cls-4{fill:#f79e1b;}</style></defs><rect class="cls-1" x="4" y="17" width="56" height="30" rx="3.97"/><path d="M25.19,40.25v-1.1a.64.64,0,0,0-.69-.69.73.73,0,0,0-.63.31.63.63,0,0,0-.58-.31.6.6,0,0,0-.52.25v-.22h-.38v1.76h.38v-1a.4.4,0,0,1,.42-.46c.26,0,.39.17.39.46v1H24v-1a.41.41,0,0,1,.42-.46c.26,0,.39.17.39.46v1Zm5.71-1.76h-.62V38h-.39v.53h-.35v.35h.35v.81c0,.4.17.64.61.64a1,1,0,0,0,.47-.13l-.11-.33a.63.63,0,0,1-.33.09c-.18,0-.26-.11-.26-.29v-.79h.63v-.35Zm3.26,0a.51.51,0,0,0-.45.25v-.22h-.39v1.76h.39v-1c0-.29.12-.46.36-.46a.93.93,0,0,1,.24,0l.11-.37Zm-4.93.18a1.24,1.24,0,0,0-.72-.18c-.44,0-.73.22-.73.56s.22.46.61.52l.18,0c.2,0,.31.09.31.18s-.14.22-.4.22a1,1,0,0,1-.59-.18l-.18.29a1.25,1.25,0,0,0,.75.22c.51,0,.81-.24.81-.57s-.24-.48-.61-.53l-.18,0c-.17,0-.29-.06-.29-.17s.12-.2.33-.2a1.4,1.4,0,0,1,.55.15l.16-.31Zm10.23-.18a.54.54,0,0,0-.46.25v-.22h-.38v1.76H39v-1c0-.29.13-.46.37-.46a1,1,0,0,1,.24,0l.11-.37Zm-4.91.91a.88.88,0,0,0,.94.92.89.89,0,0,0,.62-.2l-.18-.31a.76.76,0,0,1-.46.16.52.52,0,0,1-.54-.57.53.53,0,0,1,.54-.56.76.76,0,0,1,.46.16l.18-.31a.89.89,0,0,0-.62-.2.88.88,0,0,0-.94.91Zm3.56,0v-.88h-.39v.22a.67.67,0,0,0-.55-.25.92.92,0,0,0,0,1.83.6.6,0,0,0,.55-.26v.22h.39v-.88Zm-1.42,0a.53.53,0,0,1,.54-.56.52.52,0,0,1,.53.56.54.54,0,0,1-.53.57.55.55,0,0,1-.54-.57Zm-4.6-.91a.85.85,0,0,0-.88.91.87.87,0,0,0,.9.92,1.12,1.12,0,0,0,.72-.24l-.19-.28a.87.87,0,0,1-.51.19.49.49,0,0,1-.53-.42h1.3v-.15a.8.8,0,0,0-.81-.93Zm0,.33a.42.42,0,0,1,.44.42h-.91a.45.45,0,0,1,.47-.42Zm9.56.58V37.8h-.39v.91a.67.67,0,0,0-.55-.25.92.92,0,0,0,0,1.83.6.6,0,0,0,.55-.26v.22h.39v-.88Zm-1.41,0a.53.53,0,1,1,1.06,0,.53.53,0,1,1-1.06,0Zm-12.88,0v-.88H27v.22a.66.66,0,0,0-.55-.25.92.92,0,0,0,0,1.83A.6.6,0,0,0,27,40v.22h.39v-.88Zm-1.43,0a.53.53,0,1,1,1.06,0,.53.53,0,1,1-1.06,0Z"/><rect id="rect19" class="cls-2" x="29.1" y="25.12" width="5.78" height="10.38"/><path class="cls-3" d="M29.49,30.31A6.62,6.62,0,0,1,32,25.12,6.6,6.6,0,1,0,32,35.5,6.59,6.59,0,0,1,29.49,30.31Z"/><path id="path22" class="cls-4" d="M42.68,30.31A6.6,6.6,0,0,1,32,35.5a6.62,6.62,0,0,0,0-10.38,6.6,6.6,0,0,1,10.68,5.19Z"/></svg>