<svg id="Layer_1" data-name="Layer 1" xmlns="http://www.w3.org/2000/svg" viewBox="0 0 64 64"><defs><style>.cls-1{fill:#f9f9f9;}.cls-2{fill:#ed1c24;}</style></defs><rect class="cls-1" x="4" y="17" width="56" height="30" rx="3.97"/><path id="path26" class="cls-2" d="M52.2,26.78s.51-2.35.52-2.37H49.46s-.67,3.12-.67,3.13h.83s.51-2.34.51-2.34h1.58s-.49,2.35-.51,2.37h2.41L53.29,29H50.9s-.48,2.21-.48,2.21H48.61s-.16.79-.16.8h2.66s.47-2.22.47-2.22H54s.62-3,.62-3H52.2"/><path id="path28" d="M46.31,27.48a.56.56,0,0,1,.58.62,1.23,1.23,0,0,1,0,.19H45.39A1,1,0,0,1,46.31,27.48Zm.74,2.91.19-.87a3.1,3.1,0,0,1-1,.2c-.47,0-.88-.16-.9-.73h2.41a2.78,2.78,0,0,0,.14-.83,1.36,1.36,0,0,0-1.47-1.47,2.12,2.12,0,0,0-2.09,2.25A1.54,1.54,0,0,0,46,30.54a3.37,3.37,0,0,0,1-.15Zm-4-.74a.7.7,0,0,1-.79-.8,1.17,1.17,0,0,1,1.13-1.27,2.24,2.24,0,0,1,.72.16l.17-.83a2.69,2.69,0,0,0-1-.18,2.1,2.1,0,0,0-2.12,2.17,1.46,1.46,0,0,0,1.62,1.6,2.15,2.15,0,0,0,.79-.14l.19-.86a2.13,2.13,0,0,1-.75.15Zm-5,.78.4-1.85c.16-.74.53-1,.91-1s.55.37.45.78l-.44,2.07h1l.46-2.12c.23-1.06-.26-1.62-1-1.62a1.58,1.58,0,0,0-1.19.55l.1-.44h-1L37,30.43Zm-3.76-1c0-.37.32-.57.86-.57a3.86,3.86,0,0,1,.53,0l0,.21a1,1,0,0,1-.9.72c-.3,0-.45-.14-.45-.39Zm1-2.67a4.43,4.43,0,0,0-1.13.16l-.18.84a4.14,4.14,0,0,1,1.1-.19c.55,0,.75.17.75.45a1,1,0,0,1,0,.17l0,.07-.63,0c-1,0-1.87.4-1.87,1.36a1,1,0,0,0,1.11,1,1.37,1.37,0,0,0,1.08-.47l-.08.38h.92l.46-2.07a2.59,2.59,0,0,0,0-.47c0-.62-.34-1.17-1.55-1.17ZM30.2,30.43l.4-1.85c.16-.74.53-1,.91-1s.55.37.45.78l-.44,2.07h1.05L33,28.31c.23-1.06-.26-1.62-1-1.62a1.58,1.58,0,0,0-1.19.55l.1-.44h-1l-.79,3.63ZM28.33,25.8a.53.53,0,0,0,.54.59.61.61,0,0,0,.63-.59.52.52,0,0,0-.54-.58.61.61,0,0,0-.63.58Zm-.15,1-.78,3.63h1l.78-3.63Zm-2.95,3.63.4-1.89h1.59l.19-.93H25.83l.24-1.16h1.66l.21-.93H25.2l-1,4.91Zm-1-2.83.17-.8H23.24l.22-1L22.37,26l-.68,3.1c-.19.88.29,1.36,1.17,1.36a2.67,2.67,0,0,0,.71-.11l.18-.8a2.34,2.34,0,0,1-.59.09c-.3,0-.51-.1-.44-.47l.35-1.61Zm-4,1.76c0,.3-.36.35-.66.35a3.47,3.47,0,0,1-1-.18l-.18.82a5.07,5.07,0,0,0,1.14.15c.94,0,1.7-.35,1.7-1.23,0-1.13-1.36-.94-1.36-1.44,0-.23.22-.31.56-.31a3.72,3.72,0,0,1,1,.18l.17-.83a3.81,3.81,0,0,0-1-.14c-1,0-1.63.46-1.63,1.21,0,1.1,1.36.92,1.36,1.42Zm-3.94,1.18a2.12,2.12,0,0,0,2.1-1.92,1.52,1.52,0,0,0-1.57-1.93,2.13,2.13,0,0,0-2.1,1.93,1.52,1.52,0,0,0,1.57,1.92Zm.1-.84c-.42,0-.75-.33-.59-1.08s.52-1.08.93-1.08.75.33.59,1.08-.51,1.08-.93,1.08ZM12,28.93h.46c1.47,0,2.29-.72,2.29-1.93,0-.9-.64-1.48-1.73-1.48H11.64l-1,4.91h1.06Zm.18-.9.34-1.61h.44c.49,0,.72.19.72.66s-.37,1-1.06,1h-.44"/><path d="M25.56,39.52l.79-3.89H29l-.16.78H27.06l-.16.73h1.68l-.16.77H26.75l-.16.83h1.82l-.16.78Z"/><path d="M31.22,38.32l.14-.71h2l-.14.71Z"/><path d="M33.56,39.52l.79-3.89H36.9l-.15.78h-1.7l-.16.8h1.54l-.16.76H34.74l-.32,1.55Z"/><path d="M36.61,39.52l.57-2.81H38l-.58,2.81Zm.64-3.47a.48.48,0,0,1,.16-.36.49.49,0,0,1,.37-.16.42.42,0,0,1,.44.43.53.53,0,0,1-.53.51A.41.41,0,0,1,37.25,36.05Z"/><path d="M38,39.52l.57-2.81h.83l-.08.37a1,1,0,0,1,.82-.43.89.89,0,0,1,1,.94,2.85,2.85,0,0,1,0,.29l-.34,1.64H39.9L40.22,38a.88.88,0,0,0,0-.16c0-.26-.17-.41-.47-.41a.67.67,0,0,0-.63.58l-.31,1.56Z"/><path d="M41.86,37.14A1.56,1.56,0,0,1,43,36.66a1,1,0,0,1,.92.38l.07-.33h.82l-.57,2.81h-.81l.07-.35a.94.94,0,0,1-.84.39,1.25,1.25,0,0,1-.9-.36,1.24,1.24,0,0,1-.36-.92A1.56,1.56,0,0,1,41.86,37.14Zm1,1.67a.85.85,0,0,0,.59-.22.8.8,0,0,0,.24-.58.62.62,0,0,0-.69-.6.8.8,0,0,0-.59.23.79.79,0,0,0-.24.56A.62.62,0,0,0,42.9,38.81Z"/><path d="M44.76,39.52l.57-2.81h.83l-.08.37a1,1,0,0,1,.82-.43.89.89,0,0,1,1,.94,2.85,2.85,0,0,1,0,.29l-.34,1.64h-.84L47,38a.88.88,0,0,0,0-.16c0-.26-.17-.41-.47-.41a.67.67,0,0,0-.63.58l-.31,1.56Z"/><path d="M48.64,37.12a1.68,1.68,0,0,1,1.22-.5,1.49,1.49,0,0,1,1,.31l-.15.76a1.27,1.27,0,0,0-.81-.28,1,1,0,0,0-.65.24.7.7,0,0,0-.26.55c0,.36.3.61.75.61a1.28,1.28,0,0,0,.79-.24l-.17.82a1.26,1.26,0,0,1-.77.2,1.51,1.51,0,0,1-1-.37,1.24,1.24,0,0,1-.4-.95A1.52,1.52,0,0,1,48.64,37.12Z"/><path d="M51.41,37.14a1.6,1.6,0,0,1,1.19-.5,1.35,1.35,0,0,1,1,.35,1.18,1.18,0,0,1,.36.89,1.42,1.42,0,0,1-.08.45H51.76a.09.09,0,0,0,0,.05c0,.31.28.5.7.5a2.05,2.05,0,0,0,.95-.23l-.17.74a1.94,1.94,0,0,1-.91.2,1.45,1.45,0,0,1-1-.35,1.22,1.22,0,0,1-.38-.93A1.67,1.67,0,0,1,51.41,37.14Zm1.71.65v0c0-.25-.22-.44-.55-.44a.78.78,0,0,0-.74.46Z"/></svg>