<svg id="Layer_1" data-name="Layer 1" xmlns="http://www.w3.org/2000/svg" viewBox="0 0 64 64"><defs><style>.cls-1{fill:#f9f9f9;}.cls-2{fill:#009cde;}.cls-3{fill:#003087;}.cls-4{fill:#012169;}</style></defs><rect class="cls-1" x="4" y="17" width="56" height="30" rx="3.97"/><path class="cls-2" d="M43,29H40.65a.32.32,0,0,0-.32.27l-.93,5.92a.19.19,0,0,0,.19.22h1.18A.23.23,0,0,0,41,35.2l.26-1.68a.33.33,0,0,1,.32-.27h.73a2.37,2.37,0,0,0,2.63-2.19,1.78,1.78,0,0,0-.3-1.49A2.13,2.13,0,0,0,43,29Zm.27,2.16c-.13.83-.76.83-1.38.83h-.34l.24-1.55a.2.2,0,0,1,.19-.16h.16c.42,0,.81,0,1,.24A.75.75,0,0,1,43.23,31.14Z"/><path class="cls-3" d="M26.49,29H24.18a.32.32,0,0,0-.32.27l-.93,5.92a.19.19,0,0,0,.19.22h1.1a.32.32,0,0,0,.32-.27l.25-1.6a.32.32,0,0,1,.32-.27h.73a2.37,2.37,0,0,0,2.63-2.19,1.78,1.78,0,0,0-.3-1.49A2.13,2.13,0,0,0,26.49,29Zm.27,2.16c-.13.83-.76.83-1.38.83H25l.25-1.55a.19.19,0,0,1,.19-.16h.16c.42,0,.81,0,1,.24A.79.79,0,0,1,26.76,31.14Z"/><path class="cls-3" d="M33.39,31.11h-1.1a.19.19,0,0,0-.19.17l-.05.3L32,31.47A1.57,1.57,0,0,0,30.66,31a2.55,2.55,0,0,0-2.47,2.22,2.1,2.1,0,0,0,.42,1.7,1.71,1.71,0,0,0,1.39.56,2.13,2.13,0,0,0,1.53-.63l-.05.31a.19.19,0,0,0,.19.22h1a.31.31,0,0,0,.31-.27l.6-3.78A.2.2,0,0,0,33.39,31.11Zm-1.54,2.16a1.23,1.23,0,0,1-1.25,1,.85.85,0,0,1-.91-1.07,1.24,1.24,0,0,1,1.24-1.07,1,1,0,0,1,.73.3A1,1,0,0,1,31.85,33.27Z"/><path class="cls-2" d="M49.86,31.11h-1.1a.19.19,0,0,0-.19.17l0,.3-.08-.11A1.57,1.57,0,0,0,47.13,31a2.53,2.53,0,0,0-2.46,2.22,2.06,2.06,0,0,0,.41,1.7,1.72,1.72,0,0,0,1.39.56A2.1,2.1,0,0,0,48,34.86l0,.31a.19.19,0,0,0,.19.22h1a.3.3,0,0,0,.31-.27l.6-3.78A.2.2,0,0,0,49.86,31.11Zm-1.54,2.16a1.23,1.23,0,0,1-1.25,1,.92.92,0,0,1-.74-.3,1,1,0,0,1-.17-.77,1.24,1.24,0,0,1,1.24-1.07.93.93,0,0,1,.73.3A1,1,0,0,1,48.32,33.27Z"/><path class="cls-3" d="M39.28,31.11H38.17a.35.35,0,0,0-.27.14l-1.53,2.26-.65-2.17a.32.32,0,0,0-.31-.23H34.32a.2.2,0,0,0-.18.26L35.36,35l-1.15,1.62a.2.2,0,0,0,.16.31h1.11a.31.31,0,0,0,.26-.14l3.7-5.33A.2.2,0,0,0,39.28,31.11Z"/><path class="cls-2" d="M51.17,29.14l-1,6a.19.19,0,0,0,.19.22h1a.32.32,0,0,0,.32-.27l.93-5.92a.19.19,0,0,0-.19-.22H51.36A.19.19,0,0,0,51.17,29.14Z"/><path class="cls-2" d="M18.4,29.29A2,2,0,0,0,18,27.47a3.15,3.15,0,0,0-2.42-.77H12.39a.44.44,0,0,0-.45.38l-1.32,8.36a.27.27,0,0,0,.27.32h1.95l-.13.85a.24.24,0,0,0,.23.28h1.65a.39.39,0,0,0,.39-.34l0-.08.31-2,0-.11a.4.4,0,0,1,.39-.33H16a2.91,2.91,0,0,0,3.21-2.53,2.18,2.18,0,0,0-.33-1.9,1.72,1.72,0,0,0-.45-.34h0"/><path class="cls-4" d="M18.4,29.29A2,2,0,0,0,18,27.47a3.15,3.15,0,0,0-2.42-.77H12.39a.44.44,0,0,0-.45.38l-1.32,8.36a.27.27,0,0,0,.27.32h1.95l.49-3.12v.1a.44.44,0,0,1,.44-.38h.93a3.33,3.33,0,0,0,3.68-2.89l0-.18"/><path class="cls-3" d="M13.86,29.3a.41.41,0,0,1,.22-.3.47.47,0,0,1,.17,0h2.49a5.13,5.13,0,0,1,.81.06l.21,0,.2.05.09,0a1.84,1.84,0,0,1,.35.15A2,2,0,0,0,18,27.47a3.15,3.15,0,0,0-2.42-.77H12.39a.44.44,0,0,0-.45.38l-1.32,8.36a.27.27,0,0,0,.27.32h1.95l.49-3.12Z"/></svg>