<svg id="Layer_1" data-name="Layer 1" xmlns="http://www.w3.org/2000/svg" viewBox="0 0 64 64"><defs><style>.cls-1{fill:#f9f9f9;}.cls-2{fill:#f79f6d;}</style></defs><rect class="cls-1" x="4" y="17" width="56" height="30" rx="3.97"/><polygon class="cls-2" points="10.52 30.13 9.93 33.87 13.24 33.87 13.83 30.13 10.52 30.13"/><polygon class="cls-2" points="54.07 30.13 50.76 30.13 50.24 33.87 53.55 33.87 54.07 30.13"/><polygon class="cls-2" points="18.09 26.82 14.36 26.82 13.83 30.13 17.57 30.13 18.09 26.82"/><polygon class="cls-2" points="12.71 37.18 16.45 37.18 16.97 33.87 13.24 33.87 12.71 37.18"/><polygon class="cls-2" points="13.83 30.13 13.24 33.87 16.97 33.87 17.57 30.13 13.83 30.13"/><path d="M19.05,34,19.61,30h1.7a1,1,0,0,1,.54.16,1.22,1.22,0,0,1,.36.42,1.29,1.29,0,0,1,.15.54,1.35,1.35,0,0,1,0,.4,1.56,1.56,0,0,1-.15.39,1.59,1.59,0,0,1-.25.33,1.55,1.55,0,0,1-.33.24L22.21,34h-1l-.53-1.27h-.51L20,34Zm2-2.07a.27.27,0,0,0,.16,0,.47.47,0,0,0,.14-.14,1.47,1.47,0,0,0,.1-.22.74.74,0,0,0,0-.26.65.65,0,0,0-.05-.21.35.35,0,0,0-.11-.15.24.24,0,0,0-.13-.05h-.73l-.16,1.08Z"/><path d="M23.21,30h2.6l-.12.8H24l-.11.77h1.44l-.1.74H23.79l-.12.84h1.74l-.12.8H22.65Z"/><path d="M27.44,34a1.55,1.55,0,0,1-.65-.14,1.51,1.51,0,0,1-.49-.38,1.84,1.84,0,0,1-.32-.54,1.87,1.87,0,0,1-.14-.61,1.89,1.89,0,0,1,.06-.67,2.21,2.21,0,0,1,.28-.63,2.08,2.08,0,0,1,.45-.53,2,2,0,0,1,.62-.37A2.14,2.14,0,0,1,28,30a1.62,1.62,0,0,1,.91.24,1.21,1.21,0,0,1,.49.63l-.76.48a.75.75,0,0,0-.18-.33.63.63,0,0,0-.27-.16,1.1,1.1,0,0,0-.31,0,1,1,0,0,0-.53.13,1.33,1.33,0,0,0-.36.35,1.68,1.68,0,0,0-.2.48,1.61,1.61,0,0,0,0,.48,1.21,1.21,0,0,0,.12.47.76.76,0,0,0,.27.34.68.68,0,0,0,.42.13,1,1,0,0,0,.32-.06.9.9,0,0,0,.32-.17,1,1,0,0,0,.24-.32l.69.44a1.41,1.41,0,0,1-.44.5,2.12,2.12,0,0,1-.62.31A1.84,1.84,0,0,1,27.44,34Z"/><path d="M30,30h.91l-.21,1.53h1.43L32.37,30h.92L32.72,34h-.91L32,32.35H30.61L30.38,34h-.91Z"/><path d="M34,30h.72l1.34,2.32L36.43,30h.91L36.78,34h-.72l-1.35-2.26L34.39,34h-.91Z"/><path d="M39.15,34a1.57,1.57,0,0,1-.79-.18,1.15,1.15,0,0,1-.45-.48,1.53,1.53,0,0,1-.18-.68c0-.1,0-.2,0-.31l0-.31L38,30H39l-.3,2c0,.08,0,.16,0,.23v.22a1,1,0,0,0,.09.35.54.54,0,0,0,.19.25.53.53,0,0,0,.34.1.64.64,0,0,0,.37-.1.75.75,0,0,0,.27-.26,1.16,1.16,0,0,0,.18-.37,3.25,3.25,0,0,0,.11-.42l.29-2h.91l-.29,2a3.24,3.24,0,0,1-.21.77,2.32,2.32,0,0,1-.39.62,1.83,1.83,0,0,1-.58.42A1.92,1.92,0,0,1,39.15,34Z"/><path d="M42.09,30h.71l1.35,2.32L44.48,30h.91L44.82,34H44.1l-1.34-2.26L42.44,34h-.91Z"/><path d="M47.18,34a1.45,1.45,0,0,1-.59-.12,1.18,1.18,0,0,1-.47-.33,1.69,1.69,0,0,1-.34-.51,2.29,2.29,0,0,1-.15-.65,2.18,2.18,0,0,1,.61-1.69,2.45,2.45,0,0,1,.72-.52,2.13,2.13,0,0,1,.87-.19,1.57,1.57,0,0,1,.88.24,1.16,1.16,0,0,1,.5.63l-.75.51a.72.72,0,0,0-.29-.41.86.86,0,0,0-.49-.15,1,1,0,0,0-.45.11,1.06,1.06,0,0,0-.37.33,1.61,1.61,0,0,0-.24.47,1.72,1.72,0,0,0-.06.56,1.36,1.36,0,0,0,.13.47.86.86,0,0,0,.27.32.73.73,0,0,0,.41.12,1.13,1.13,0,0,0,.53-.14,2.11,2.11,0,0,0,.5-.42l-.13.9a1.68,1.68,0,0,1-.53.35A1.34,1.34,0,0,1,47.18,34Zm1.17-1.43h-.71l.09-.66H49.2L48.91,34h-.76Z"/></svg>