<svg id="Layer_1" data-name="Layer 1" xmlns="http://www.w3.org/2000/svg" xmlns:xlink="http://www.w3.org/1999/xlink" viewBox="0 0 64 64"><defs><style>.cls-1{fill:#f9f9f9;}.cls-2{fill:url(#radial-gradient);}.cls-3{fill:url(#radial-gradient-2);}</style><radialGradient id="radial-gradient" cx="-2171.58" cy="708.32" r="0.08" gradientTransform="matrix(81.53, 0, 0, -92.03, 177062.83, 65216.37)" gradientUnits="userSpaceOnUse"><stop offset="0" stop-color="#fc0"/><stop offset="0.09" stop-color="#ffc800"/><stop offset="0.17" stop-color="#ffbd00"/><stop offset="0.25" stop-color="#ffab00"/><stop offset="0.33" stop-color="#ff9100"/><stop offset="0.4" stop-color="#ff7000"/><stop offset="0.48" stop-color="#ff4700"/><stop offset="0.55" stop-color="#ff1800"/><stop offset="0.58" stop-color="red"/><stop offset="1" stop-color="red"/></radialGradient><radialGradient id="radial-gradient-2" cx="-2162.03" cy="708.32" r="0.1" gradientTransform="matrix(60.85, 0, 0, -92.14, 131575.23, 65291.42)" gradientUnits="userSpaceOnUse"><stop offset="0" stop-color="#00b4e6"/><stop offset="0.2" stop-color="#00b0e3"/><stop offset="0.39" stop-color="#01a5db"/><stop offset="0.57" stop-color="#0292cd"/><stop offset="0.75" stop-color="#0377ba"/><stop offset="0.93" stop-color="#0455a1"/><stop offset="1" stop-color="#054696"/></radialGradient></defs><rect class="cls-1" x="4" y="17" width="56" height="30" rx="3.97"/><path id="Shape1" d="M23,35.13a.62.62,0,0,1-.28.48l-5.42,3.13a.61.61,0,0,1-.56,0l-5.41-3.13a.62.62,0,0,1-.28-.48V28.87a.62.62,0,0,1,.28-.48l5.41-3.13a.61.61,0,0,1,.56,0l5.42,3.13a.62.62,0,0,1,.28.48ZM53,29.32H48.15v1.16h1.74v4.95h1.38V30.48H53Zm-22,0H26.13v1.16h1.74v4.95h1.38V30.48H31Zm14-.19a2.2,2.2,0,0,0-2.37,2.38v3.92H44V31.48a1,1,0,0,1,1-1.08,1,1,0,0,1,1,1.08v3.95h1.36V31.51A2.22,2.22,0,0,0,45,29.13Zm-5.12.19v6.11h1.36V29.32Zm-4.6,2.42.05.27,1.27,3.42h.56l1.73-6.11H37.56l-.82,3.21-.05.35-.07-.35-1.11-3.21h-.44L34,32.53l-.07.35,0-.35L33,29.32H31.69l1.73,6.11H34L35.25,32l0-.27"/><path id="Shape2" class="cls-2" d="M19.8,32l-1.42,2.08L17.66,33l.83-1.25a1.61,1.61,0,0,0,.11-1.66,1.75,1.75,0,0,0-1.58-1,1.72,1.72,0,0,0-1.57,1,1.59,1.59,0,0,0,.09,1.64s.47.68.85,1.26l.63.91L18,35.32a.55.55,0,0,0,.42.24.6.6,0,0,0,.43-.25L21,32H19.8ZM17,32.07s-.37-.56-.61-1a.7.7,0,1,1,1.22,0C17.39,31.51,17,32.07,17,32.07Z"/><path class="cls-3" d="M15.66,34l-1.39-2-.61-.95a.7.7,0,0,1,.61-1.05.71.71,0,0,1,.21,0l.49-.89a1.72,1.72,0,0,0-.69-.15,1.74,1.74,0,0,0-1.58,1,1.59,1.59,0,0,0,.1,1.64l2.43,3.6a.49.49,0,0,0,.86,0l.73-1.12-.63-.92-.53.74Z"/></svg>