<svg id="Layer_1" data-name="Layer 1" xmlns="http://www.w3.org/2000/svg" viewBox="0 0 64 64"><defs><style>.cls-1{fill:#f9f9f9;}.cls-2{fill:#1434cb;}</style></defs><rect class="cls-1" x="4" y="17" width="56" height="30" rx="3.97"/><path class="cls-2" d="M28.4,27.34l-3.91,9.34H21.94L20,29.23a1,1,0,0,0-.57-.82,9.76,9.76,0,0,0-2.38-.79l.05-.28h4.11a1.13,1.13,0,0,1,1.12,1l1,5.4,2.52-6.36Zm10,6.29c0-2.46-3.41-2.6-3.39-3.7,0-.33.33-.69,1-.78a4.49,4.49,0,0,1,2.38.42l.42-2a6.5,6.5,0,0,0-2.26-.42c-2.38,0-4.06,1.27-4.08,3.09,0,1.34,1.2,2.09,2.12,2.54s1.25.75,1.25,1.16c0,.63-.75.9-1.45.91A5,5,0,0,1,32,34.28l-.43,2a7.42,7.42,0,0,0,2.68.5c2.54,0,4.2-1.26,4.21-3.2m6.3,3h2.23L45,27.34H42.93a1.11,1.11,0,0,0-1,.69l-3.62,8.65h2.54l.5-1.39h3.1ZM42,33.37l1.28-3.5.73,3.5Zm-10.16-6-2,9.34H27.44l2-9.34Z"/></svg>