<svg xmlns="http://www.w3.org/2000/svg" width="32" height="32" viewBox="0 0 32 32">
  <g id="Group_59601" data-name="Group 59601" transform="translate(-955 -566)">
    <path id="Path_39935" data-name="Path 39935" d="M0,30Z" transform="translate(967 567)" fill="red"/>
    <g id="Group_59598" data-name="Group 59598" transform="translate(758 -713)">
      <g id="_000000ff" data-name="#000000ff" transform="translate(201.472 1283.472)">
        <path id="Path_39930" data-name="Path 39930" d="M715.729,205.589a3.835,3.835,0,0,1-3.84-3.806q0-2.142,0-4.283,0-1.683,0-3.366v-.268l-.246-.109a2.247,2.247,0,0,1-1.338-1.949c-.006-.6,0-1.206,0-1.812v-.43a2.239,2.239,0,0,1,2.22-2.209h4.2l-.281-.589a3.288,3.288,0,0,1,2.38-4.647,3.106,3.106,0,0,1,.584-.055,3.353,3.353,0,0,1,2.358.99l.293.3.3-.3a3.308,3.308,0,0,1,2.328-.991c.044,0,.088,0,.132,0a3.289,3.289,0,0,1,2.866,4.695l-.287.591,1.244,0,1.638,0c.485,0,.97,0,1.455.008a2.242,2.242,0,0,1,2.079,2.009c.02.5.017,1.032.014,1.543,0,.275,0,.55,0,.825a2.266,2.266,0,0,1-1.339,2.015l-.247.108v7.5a5.371,5.371,0,0,1-.065,1.082,3.832,3.832,0,0,1-3.8,3.138h-12.64Zm12.326-1.293.168,0a2.864,2.864,0,0,0,1.114-.179,2.53,2.53,0,0,0,1.6-2.335q0-2.385,0-4.775v-3.066h-8.235v10.353h5.348Zm-14.876-2.585a2.538,2.538,0,0,0,2.543,2.584h5.693V193.942H713.18Zm15.353-9.063,3.052,0a.944.944,0,0,0,.945-.991v-.584c0-.506,0-1.011-.005-1.517a.935.935,0,0,0-.923-.9h-.036c-1.025,0-2.067,0-3.11,0h-5.75v4h5.825Zm-12.944,0h5.826v-4h-5.751l-3.128,0h0a.935.935,0,0,0-.939.911c-.007.5-.006,1,0,1.5v.6a.939.939,0,0,0,.249.689.921.921,0,0,0,.674.3h.026Zm9.081-9.291a2.01,2.01,0,0,0-1.953,1.838c-.012.369-.011.73-.009,1.078,0,.222,0,.445,0,.667l0,.421.421,0h.266l.772,0c.233,0,.465,0,.7-.011a2,2,0,0,0,1.839-2.17,2.012,2.012,0,0,0-1.96-1.822Zm-3.251,4,0-.418c0-.219,0-.439,0-.658,0-.334,0-.668,0-1a2,2,0,0,0-1.689-1.9,1.79,1.79,0,0,0-.309-.026,2.024,2.024,0,0,0-1.7.947,2,2,0,0,0,1.637,3.052c.2,0,.4,0,.595,0l.779,0Z" transform="translate(-710.298 -182.064)" fill="#664618"/>
      </g>
      <rect id="Rectangle_82" data-name="Rectangle 82" width="32" height="32" transform="translate(197 1279)" fill="none"/>
    </g>
  </g>
</svg>
