<svg xmlns="http://www.w3.org/2000/svg" width="32" height="32" viewBox="0 0 32 32">
  <g id="Group_59599" data-name="Group 59599" transform="translate(-285 -1279)">
    <g id="Group_59439" data-name="Group 59439" transform="translate(290.311 1282.237)">
      <g id="Path_71" data-name="Path 71" transform="translate(0 0)">
        <path id="Path_39928" data-name="Path 39928" d="M824.509,110.473h0a4.13,4.13,0,0,1-2.239-.658l-.008,0c-1.767-1.173-3.594-2.386-5.389-3.584a6.68,6.68,0,0,1-3.048-5.518V100.7c0-3.731,0-7.514,0-11.243h0a2.636,2.636,0,0,1,1.737-2.471l.017-.006c2.8-.93,5.4-1.8,7.948-2.654a3.545,3.545,0,0,1,.553-.147l.017,0a2.817,2.817,0,0,1,.415-.031,2.78,2.78,0,0,1,.981.178c3.181,1.062,5.615,1.876,7.889,2.639a2.641,2.641,0,0,1,1.809,2.485v.005c0,3.374,0,6.793,0,10.165a11.362,11.362,0,0,1-.128,2.307l-.005.027a6.691,6.691,0,0,1-2.876,4.249l-4.081,2.716-1.352.9-.009.006A4.129,4.129,0,0,1,824.509,110.473Zm-1.557-1.71a2.879,2.879,0,0,0,1.557.456h0a2.877,2.877,0,0,0,1.549-.452l1.347-.9,4.082-2.716,0,0a5.474,5.474,0,0,0,2.335-3.44,10.108,10.108,0,0,0,.111-2.052v-.03c0-3.374,0-6.8,0-10.175a1.387,1.387,0,0,0-.949-1.3h0c-2.277-.763-4.714-1.579-7.9-2.643l-.025-.009a1.531,1.531,0,0,0-.548-.1,1.558,1.558,0,0,0-.221.016,2.328,2.328,0,0,0-.353.1l-.007,0c-2.544.855-5.143,1.723-7.947,2.653a1.389,1.389,0,0,0-.9,1.292c0,3.727,0,7.507,0,11.237a5.415,5.415,0,0,0,2.479,4.481l.008.005C819.359,106.378,821.185,107.59,822.951,108.763Z" transform="translate(-813.823 -84.144)" fill="#664618"/>
      </g>
      <g id="Group_59437" data-name="Group 59437" transform="translate(6.785 6.983)">
        <path id="Path_39929" data-name="Path 39929" d="M844.777,123.051q-1.283,0-2.567,0a1.394,1.394,0,0,1-1.327-1.346c0-1.372-.005-2.749,0-4.123a1.384,1.384,0,0,1,1.15-1.3.125.125,0,0,0,.1-.123c0-.233,0-.467,0-.7,0-.315,0-.63,0-.944a2.5,2.5,0,0,1,.551-1.532c.017-.022.031-.038.046-.055l.026-.031a2.693,2.693,0,0,1,3.8-.227,2.53,2.53,0,0,1,.848,1.792c.006.319,0,.642,0,.965,0,.245,0,.49,0,.734a.125.125,0,0,0,.1.122,1.387,1.387,0,0,1,1.151,1.3c0,1.368,0,2.745,0,4.119a1.393,1.393,0,0,1-1.332,1.345Q846.062,123.051,844.777,123.051Zm0-9.805a1.394,1.394,0,0,0-1.377,1.206c-.007.333-.006.652-.005.972,0,.237,0,.474,0,.711a.125.125,0,0,0,.125.126h2.515a.125.125,0,0,0,.125-.126c0-.231,0-.461,0-.692,0-.328,0-.656,0-.985a1.389,1.389,0,0,0-1.378-1.212Z" transform="translate(-840.88 -111.991)" fill="#664618"/>
      </g>
    </g>
    <rect id="Rectangle_83" data-name="Rectangle 83" width="32" height="32" transform="translate(285 1279)" fill="none"/>
  </g>
</svg>
