<svg xmlns="http://www.w3.org/2000/svg" width="64.119" height="46.76" viewBox="0 0 64.119 46.76">
  <g id="GEMAHLEN_LOGO" data-name="GEMAHLEN LOGO" transform="translate(-25.1 -88.3)">
    <g id="Group_59848" data-name="Group 59848" transform="translate(35.79 88.3)">
      <path id="Mug" d="M122.142,122.974c-5.245-.014-10.489-1.639-12.328-4.874-2.665,1.4-6.4-.257-8.423-3.777-2.067-3.577-1.582-7.739,1.083-9.278a3.73,3.73,0,0,1,.684-.314l-.741-1.5C97.928,93.274,110.042,88.3,122.142,88.3s24.214,4.974,19.739,14.95l-7.3,14.665c-1.753,3.349-7.1,5.045-12.442,5.059Zm-13.881-7.981-3.563-7.154a2.195,2.195,0,0,0-.5.214c-1.425.827-1.7,3.064-.584,4.974s3.178,2.808,4.6,1.981Z" transform="translate(-100.11 -88.3)" fill="#452821" fill-rule="evenodd"/>
      <path id="Letter_G" d="M168.346,112.16H148.251v3.663h12.313c-1.439,1.967-5.131,3.363-9.449,3.363-5.572,0-10.09-2.323-10.09-5.188,0-4.66,10.96-6.9,17.23-3.677l5.031-2.594c-10.7-5.5-29.387-1.682-29.387,6.271,0,4.888,7.71,8.85,17.216,8.85,11.772,0,18.37-5.33,17.23-10.689Z" transform="translate(-129.084 -102.739)" fill="#fff" fill-rule="evenodd"/>
    </g>
    <path id="Registered" d="M370.707,259a2.822,2.822,0,0,0-1.14.242,3.036,3.036,0,0,0-.926.627,2.917,2.917,0,0,0-.613.926,2.791,2.791,0,0,0-.228,1.126,2.854,2.854,0,0,0,.1.77,3.775,3.775,0,0,0,.285.7,2.584,2.584,0,0,0,.456.584,2.237,2.237,0,0,0,.584.456,2.792,2.792,0,0,0,.7.3,2.875,2.875,0,0,0,.77.114,2.6,2.6,0,0,0,1.14-.242,3.036,3.036,0,0,0,.926-.627,3,3,0,0,0,.613-.926,2.743,2.743,0,0,0,.228-1.126,2.791,2.791,0,0,0-.228-1.126,3,3,0,0,0-.613-.926,3.036,3.036,0,0,0-.926-.627,2.706,2.706,0,0,0-1.126-.242Zm-.014,4.988a1.975,1.975,0,0,1-1.026-.271,1.911,1.911,0,0,1-.727-.741,2.12,2.12,0,0,1-.271-1.026,2.152,2.152,0,0,1,.157-.8,1.868,1.868,0,0,1,.428-.656,1.9,1.9,0,0,1,.656-.442,1.978,1.978,0,0,1,.812-.171,2.1,2.1,0,0,1,.8.157,2.057,2.057,0,0,1,.641.442,2.37,2.37,0,0,1,.428.656,2.152,2.152,0,0,1,.157.8,1.89,1.89,0,0,1-.1.641,1.944,1.944,0,0,1-.285.57,2.519,2.519,0,0,1-.428.442,2.1,2.1,0,0,1-.556.3,2.835,2.835,0,0,1-.684.1Zm1.169-2.494a.99.99,0,0,0-.271-.741,1.034,1.034,0,0,0-.784-.285h-1.154v2.893h.741v-.884h.185l.542.884h.869l-.656-1a.881.881,0,0,0,.527-.869Zm-1.468-.356h.242a.542.542,0,0,1,.228.043.3.3,0,0,1,.143.114.338.338,0,0,1,.043.171.285.285,0,0,1-.114.242.512.512,0,0,1-.314.085h-.228Z" transform="translate(-293.859 -146.372)" fill="#452821" fill-rule="evenodd"/>
    <g id="Group_59849" data-name="Group 59849" transform="translate(25.1 126.352)">
      <path id="Path_39936" data-name="Path 39936" d="M29.447,360.445h2.1a2.736,2.736,0,0,1-.67,1.525,2.188,2.188,0,0,1-1.667.6,2.272,2.272,0,0,1-1.8-.741,3.066,3.066,0,0,1-.656-2.109,3.2,3.2,0,0,1,.67-2.138,2.378,2.378,0,0,1,1.9-.77,2.332,2.332,0,0,1,1.254.314,1.663,1.663,0,0,1,.67.884l.014.028h1.81l-.014-.057a3.234,3.234,0,0,0-1.268-1.967,4.136,4.136,0,0,0-2.466-.713,4.361,4.361,0,0,0-2.252.556,3.728,3.728,0,0,0-1.454,1.553,5.36,5.36,0,0,0-.014,4.546,3.733,3.733,0,0,0,1.382,1.511,4.006,4.006,0,0,0,2.081.542,3.407,3.407,0,0,0,1.568-.328,2.789,2.789,0,0,0,.955-.827l.114,1.012h1.5v-4.689H29.447Z" transform="translate(-25.1 -355.3)" fill="#452821"/>
      <path id="Path_39937" data-name="Path 39937" d="M91.5,364.737h5.544v-1.325H93.125V361.1h3.563V359.82H93.125v-2.195h3.919V356.3H91.5Z" transform="translate(-82.037 -356.158)" fill="#452821"/>
      <path id="Path_39938" data-name="Path 39938" d="M144.318,361.53,141.7,356.3h-1.9v8.437h1.625V359.15l2.238,4.389h1.268l2.238-4.389v5.587h1.625V356.3h-1.9Z" transform="translate(-123.453 -356.158)" fill="#452821"/>
      <path id="Path_39939" data-name="Path 39939" d="M212.778,356.3l-3.078,8.437h1.71l.684-1.924h3.178l.67,1.924h1.724l-3.078-8.437Zm2.024,5.216h-2.28l1.126-3.264Z" transform="translate(-183.391 -356.158)" fill="#452821"/>
      <path id="Path_39940" data-name="Path 39940" d="M277.359,359.763h-3.634V356.3H272.1v8.437h1.625V361.1h3.634v3.634h1.625V356.3h-1.625Z" transform="translate(-236.898 -356.158)" fill="#452821"/>
      <path id="Path_39941" data-name="Path 39941" d="M332.725,356.3H331.1v8.437h5.316v-1.3h-3.691Z" transform="translate(-287.49 -356.158)" fill="#452821"/>
      <path id="Path_39942" data-name="Path 39942" d="M377.1,364.737h5.544v-1.325h-3.919V361.1h3.563V359.82h-3.563v-2.195h3.919V356.3H377.1Z" transform="translate(-326.934 -356.158)" fill="#452821"/>
      <path id="Path_39943" data-name="Path 39943" d="M430.844,356.3v5.758L427.01,356.3H425.4v8.437h1.625v-5.743l3.848,5.743h1.6V356.3Z" transform="translate(-368.35 -356.158)" fill="#452821"/>
    </g>
  </g>
</svg>
